<svg width="108" height="26" viewBox="0 0 108 26" fill="none" xmlns="http://www.w3.org/2000/svg">
<g id="Group 765">
<g id="&#208;&#154;&#208;&#176;&#208;&#177;&#209;&#150;&#208;&#189;&#208;&#181;&#209;&#130; &#208;&#156;&#209;&#150;&#208;&#189;&#209;&#150;&#209;&#129;&#209;&#130;&#209;&#128;&#209;&#150;&#208;&#178; &#208;&#163;&#208;&#186;&#209;&#128;&#208;&#176;&#209;&#151;&#208;&#189;&#208;&#184;">
<path d="M32.4048 8.54217C32.2104 8.54217 32.097 8.41254 32.097 8.23428V5.86839H30.8978L32.5507 3.32425H31.4002L29.8445 5.86839H28.6129V3.32425H27.592V9.48205H28.6129V6.79206H31.0761V8.42874C31.0761 9.10934 31.4488 9.48205 32.097 9.48205H32.5993V8.54217H32.4048Z" fill="black"/>
<path d="M37.6552 8.6394C37.4445 8.6394 37.3473 8.54217 37.3473 8.33151V6.14387C37.3473 5.13918 36.6343 4.5396 35.4675 4.5396C34.6249 4.5396 33.9281 4.83129 33.3609 5.36604L33.9605 5.99803C34.3494 5.59291 34.868 5.34984 35.4189 5.34984C36.0347 5.34984 36.4398 5.60912 36.4398 5.99803C36.4398 6.37074 36.0833 6.43556 35.3541 6.53279C34.398 6.67863 33.2637 6.9379 33.2637 8.12085C33.2637 8.9797 33.9119 9.56307 34.8518 9.56307C35.5648 9.56307 36.213 9.23898 36.5533 8.75284C36.6181 9.3038 36.8936 9.51446 37.4931 9.51446C37.6552 9.51446 37.7848 9.49825 37.8334 9.48205V8.6394H37.6552ZM35.0138 8.76904C34.5115 8.76904 34.2198 8.52597 34.2198 8.07224C34.2198 7.44025 34.8518 7.34302 35.4675 7.2458C35.9375 7.16477 36.2292 7.11616 36.4074 7.00272V7.63471C36.4074 8.25049 35.7592 8.76904 35.0138 8.76904Z" fill="black"/>
<path d="M43.3106 7.31061C43.3106 6.03044 42.4356 5.12297 41.2202 5.12297C40.4424 5.12297 39.8104 5.39845 39.4539 5.9008C39.5349 5.10677 39.9563 4.68545 40.7827 4.50719L42.2087 4.21551C42.7759 4.06967 43.1 3.76178 43.1486 3.21081L43.1648 3.06497L42.2411 2.88672L42.2087 3.03256C42.1763 3.22702 42.0791 3.32425 41.9008 3.35666L40.7503 3.59973C39.2595 3.92382 38.5789 4.89611 38.5789 6.77586C38.5789 8.47736 39.5025 9.56307 40.961 9.56307C42.3546 9.56307 43.3268 8.6232 43.3106 7.31061ZM40.961 8.73663C40.1669 8.73663 39.5998 8.13706 39.5998 7.2782C39.5998 6.41935 40.1345 5.8846 40.961 5.8846C41.7874 5.8846 42.3059 6.43556 42.3059 7.32682C42.3059 8.16947 41.7874 8.73663 40.961 8.73663Z" fill="black"/>
<path d="M44.4612 3.94003H45.5307V2.96774H44.4612V3.94003ZM44.5098 9.48205H45.4821V4.62063H44.5098V9.48205Z" fill="black"/>
<path d="M50.4245 4.62063V6.54899H48.0586V4.62063H47.0863V9.48205H48.0586V7.45646H50.4245V9.48205H51.3968V4.62063H50.4245Z" fill="black"/>
<path d="M53.5358 7.35923H57.2791C57.3115 7.2458 57.3115 7.16477 57.3115 7.05134C57.3115 5.52809 56.3879 4.5396 54.9781 4.5396C53.5358 4.5396 52.5635 5.5605 52.5635 7.05134C52.5635 8.49356 53.4386 9.56307 55.0591 9.56307C56.08 9.56307 56.7444 9.17416 57.1495 8.68802L56.4851 8.10465C56.2096 8.46115 55.7559 8.73663 55.0429 8.73663C54.184 8.73663 53.6493 8.20188 53.5358 7.35923ZM54.9781 5.34984C55.6911 5.34984 56.1934 5.81978 56.323 6.61381H53.552C53.6979 5.83598 54.2002 5.34984 54.9781 5.34984Z" fill="black"/>
<path d="M62.0757 4.62063H57.6032V5.49568H59.3533V9.48205H60.3256V5.49568H62.0757V4.62063Z" fill="black"/>
<path d="M72.625 3.32425H71.0694L69.2058 8.2829L67.3261 3.32425H65.7542V9.48205H66.7427V4.47478L68.6387 9.48205H69.7568L71.6365 4.49099V9.48205H72.625V3.32425Z" fill="black"/>
<path d="M74.3427 3.94003H75.4122V2.96774H74.3427V3.94003ZM74.3913 9.48205H75.3636V4.62063H74.3913V9.48205Z" fill="black"/>
<path d="M80.3061 4.62063V6.54899H77.9402V4.62063H76.9679V9.48205H77.9402V7.45646H80.3061V9.48205H81.2784V4.62063H80.3061Z" fill="black"/>
<path d="M82.834 3.94003H83.9035V2.96774H82.834V3.94003ZM82.8826 9.48205H83.8549V4.62063H82.8826V9.48205Z" fill="black"/>
<path d="M87.5334 9.56307C88.5705 9.56307 89.4293 9.02832 89.7048 8.10465L88.7812 7.81296C88.5867 8.38013 88.133 8.73663 87.5334 8.73663C86.6421 8.73663 86.0912 8.07224 86.0912 7.05134C86.0912 6.03044 86.6421 5.36604 87.5334 5.36604C88.133 5.36604 88.5705 5.72255 88.7812 6.28972L89.7048 5.99803C89.4293 5.07436 88.5867 4.5396 87.5334 4.5396C86.0912 4.5396 85.1027 5.5605 85.1027 7.05134C85.1027 8.54217 86.0912 9.56307 87.5334 9.56307Z" fill="black"/>
<path d="M94.5176 4.62063H90.0451V5.49568H91.7952V9.48205H92.7675V5.49568H94.5176V4.62063Z" fill="black"/>
<path d="M98.0179 4.5396C97.3211 4.5396 96.7377 4.84749 96.3488 5.39845L96.284 4.62063H95.4413V11.1025H96.4136V8.83386C96.7863 9.3038 97.3535 9.56307 98.0179 9.56307C99.2656 9.56307 100.141 8.54217 100.141 7.05134C100.141 5.52809 99.298 4.5396 98.0179 4.5396ZM97.7586 8.73663C96.8997 8.73663 96.3488 8.07224 96.3488 7.05134C96.3488 6.03044 96.8997 5.36604 97.7586 5.36604C98.6012 5.36604 99.1522 6.03044 99.1522 7.05134C99.1522 8.07224 98.6012 8.73663 97.7586 8.73663Z" fill="black"/>
<path d="M101.34 3.94003H102.409V2.96774H101.34V3.94003ZM101.388 9.48205H102.361V4.62063H101.388V9.48205Z" fill="black"/>
<path d="M107.174 6.98652C107.611 6.79206 107.87 6.41935 107.87 5.8846C107.87 5.00954 107.206 4.62063 106.136 4.62063H103.965V9.48205H106.315C107.368 9.48205 108 9.02832 108 8.16947C108 7.56989 107.708 7.18098 107.174 6.98652ZM104.889 5.38225H106.185C106.639 5.38225 106.914 5.60912 106.914 5.99803C106.914 6.45176 106.671 6.63001 106.136 6.63001H104.889V5.38225ZM106.217 8.70422H104.889V7.35923H106.169C106.704 7.35923 107.028 7.6185 107.028 8.03983C107.028 8.44495 106.72 8.70422 106.217 8.70422Z" fill="black"/>
<path d="M31.4974 15.7695L30.2982 19.2535H29.7959L27.9647 15.7695H26.8142L28.7426 19.2535H28.0782C27.6893 19.5452 27.4786 19.9989 27.4786 20.5175C27.4786 21.4087 28.0944 22.0083 29.0181 22.0083C29.8769 22.0083 30.4927 21.4898 30.8654 20.4527L32.5831 15.7695H31.4974ZM29.0505 21.1495C28.6615 21.1495 28.4185 20.9064 28.4185 20.5013C28.4185 20.323 28.4833 20.161 28.5967 20.0313H30.0227L29.8931 20.404C29.6987 20.9064 29.4556 21.1495 29.0505 21.1495Z" fill="black"/>
<path d="M37.6714 21.0684C37.5255 21.0684 37.4283 20.9712 37.4283 20.8254V19.0429H36.5371L37.7686 17.0659H36.7315L35.581 18.9942H34.5925V15.4454H33.6202V21.9273H34.5925V19.9017H36.4722V21.0198C36.4722 21.6194 36.8125 21.9273 37.4121 21.9273H37.8496V21.0684H37.6714Z" fill="black"/>
<path d="M41.5605 16.9848C40.8637 16.9848 40.2804 17.2927 39.8914 17.8437L39.8266 17.0659H38.984V23.5478H39.9563V21.2791C40.329 21.749 40.8961 22.0083 41.5605 22.0083C42.8083 22.0083 43.6833 20.9874 43.6833 19.4966C43.6833 17.9733 42.8407 16.9848 41.5605 16.9848ZM41.3013 21.1819C40.4424 21.1819 39.8914 20.5175 39.8914 19.4966C39.8914 18.4757 40.4424 17.8113 41.3013 17.8113C42.1439 17.8113 42.6949 18.4757 42.6949 19.4966C42.6949 20.5175 42.1439 21.1819 41.3013 21.1819Z" fill="black"/>
<path d="M48.6906 21.0846C48.48 21.0846 48.3827 20.9874 48.3827 20.7768V18.5891C48.3827 17.5844 47.6697 16.9848 46.503 16.9848C45.6603 16.9848 44.9635 17.2765 44.3964 17.8113L44.9959 18.4433C45.3848 18.0382 45.9034 17.7951 46.4544 17.7951C47.0701 17.7951 47.4753 18.0544 47.4753 18.4433C47.4753 18.816 47.1188 18.8808 46.3895 18.978C45.4335 19.1239 44.2991 19.3832 44.2991 20.5661C44.2991 21.4249 44.9473 22.0083 45.8872 22.0083C46.6002 22.0083 47.2484 21.6842 47.5887 21.1981C47.6535 21.749 47.929 21.9597 48.5286 21.9597C48.6906 21.9597 48.8203 21.9435 48.8689 21.9273V21.0846H48.6906ZM46.0492 21.2143C45.5469 21.2143 45.2552 20.9712 45.2552 20.5175C45.2552 19.8855 45.8872 19.7883 46.503 19.691C46.9729 19.61 47.2646 19.5614 47.4429 19.448V20.08C47.4429 20.6957 46.7947 21.2143 46.0492 21.2143Z" fill="black"/>
<path d="M49.1606 16.3853H50.2139V15.413H49.1606V16.3853ZM50.8296 16.3853H51.8829V15.413H50.8296V16.3853ZM50.0356 21.9273H51.0079V17.0659H50.0356V21.9273Z" fill="black"/>
<path d="M55.9503 17.0659V18.9942H53.5844V17.0659H52.6122V21.9273H53.5844V19.9017H55.9503V21.9273H56.9226V17.0659H55.9503Z" fill="black"/>
<path d="M61.7678 17.0659L59.402 20.5661V17.0659H58.4459V21.9273H59.4344L61.8165 18.3947V21.9273H62.7725V17.0659H61.7678Z" fill="black"/>
</g>
<path id="Vector" d="M3.66333 18.6596C3.66333 18.6854 3.66333 18.7112 3.66333 18.737H4.87586C4.87586 18.7112 4.87586 18.6596 4.87586 18.6339C4.87586 18.6081 4.87586 18.5823 4.87586 18.5566C4.87586 18.1442 4.97906 17.7576 4.97906 17.6029C5.28864 15.2575 6.83656 14.2781 6.86236 14.2524C6.96555 14.3555 8.46187 15.5668 8.74565 17.6287C8.74565 17.7833 8.84885 18.1699 8.84885 18.5823C8.84885 18.6081 8.84885 18.6339 8.84885 18.6596C8.84885 18.6854 8.84885 18.7112 8.84885 18.7112H10.0614C10.0614 18.6854 10.0614 18.6596 10.0614 18.6339C10.0614 16.572 9.18423 15.1287 8.35868 14.2008H8.38447C7.66211 12.706 7.53312 11.0049 7.61052 9.3554C7.68791 7.75744 7.73951 5.69556 7.79111 4.0976C7.81691 3.2213 7.61052 2.42232 7.01715 1.72644C6.99135 1.67489 6.86236 1.57179 6.83656 1.54602C6.83656 1.54602 6.68177 1.67489 6.65597 1.72644C6.0626 2.42232 5.85621 3.24707 5.88201 4.0976C5.93361 5.69556 5.9852 7.75744 6.0626 9.3554C6.14 11.0049 6.0626 12.706 5.31444 14.2008C4.51468 15.1287 3.66333 16.572 3.66333 18.6596Z" fill="black"/>
<path id="Vector_2" d="M13.7507 3.8396C13.7249 3.8396 13.6991 3.8396 13.6733 3.8396C13.6217 3.86537 13.5701 3.89115 13.5185 3.91692C12.7961 4.35507 12.1769 4.89631 11.661 5.56643C10.6032 6.88088 10.113 8.40151 9.95826 10.0768C9.88086 10.9531 9.75187 11.8552 9.64867 12.7315C9.59708 13.1696 9.54548 13.6335 9.51968 14.0717C9.95826 13.9944 10.2936 14.149 10.6032 14.4325C11.016 14.7934 11.0676 15.3861 10.7322 15.7985C10.5774 15.9789 10.3452 16.1336 10.113 16.2624C10.113 16.2624 10.0872 16.2624 10.0872 16.2882C10.2162 16.6233 10.3194 17.0099 10.371 17.4223C10.3968 17.4223 10.4226 17.3965 10.4484 17.3965C11.3772 17.0614 11.9447 16.4429 12.0995 15.4377C12.2285 14.5872 11.7642 13.7109 10.9644 13.2469C10.8354 13.1696 10.7838 13.0923 10.8096 12.9377C10.9386 11.9583 11.0676 10.9789 11.145 9.9737C11.2224 9.07163 11.4804 8.2211 11.8932 7.37057C12.0737 6.98397 12.6155 6.21076 12.6155 6.21076C12.6155 6.21076 12.6155 14.8707 12.6155 19.1749H7.92017V20.2058H8.69413C8.46194 21.3398 7.89437 22.0873 7.45579 22.5254V18.9944C7.53319 18.7109 7.73958 18.3501 8.35874 18.1697C8.38454 18.1697 8.41034 18.1439 8.46194 18.1439C8.43614 17.9893 8.41034 17.8346 8.41034 17.7573C8.38454 17.5253 8.33294 17.2934 8.28135 17.0614C8.17815 17.0872 8.07496 17.113 8.02336 17.1387C7.63638 17.2934 7.01722 17.7831 6.88822 17.9119C6.75923 17.8089 6.14007 17.2934 5.75309 17.1387C5.70149 17.113 5.59829 17.0872 5.4951 17.0614C5.4435 17.2676 5.39191 17.4996 5.36611 17.7573C5.36611 17.8346 5.34031 17.9635 5.31451 18.1439C5.34031 18.1439 5.36611 18.1697 5.41771 18.1697C6.03687 18.3501 6.24326 18.7109 6.32066 18.9944V22.5512C5.88208 22.113 5.31451 21.3656 5.08232 20.2573H5.88208V19.2264H1.13514V6.23654C1.13514 6.23654 1.67691 7.00974 1.8575 7.39635C2.24448 8.2211 2.50246 9.07163 2.60566 9.99947C2.68305 10.9789 2.81205 11.9583 2.94104 12.9634C2.96684 13.1181 2.91524 13.1954 2.78625 13.2727C1.98649 13.7366 1.52212 14.6129 1.65111 15.4635C1.7801 16.4429 2.37347 17.0872 3.30222 17.4223C3.32802 17.4223 3.35382 17.448 3.37962 17.448C3.45701 17.0356 3.53441 16.6748 3.6634 16.314C3.6634 16.314 3.6634 16.314 3.6376 16.314C3.40541 16.1851 3.17323 16.0563 3.01844 15.8501C2.68305 15.4377 2.73465 14.8449 3.14743 14.4841C3.43121 14.2263 3.79239 14.0459 4.23097 14.1232C4.17937 13.6593 4.15357 13.2212 4.10198 12.783C3.99878 11.9067 3.86979 11.0046 3.79239 10.1283C3.6634 8.45306 3.14743 6.93242 2.08969 5.61797C1.57371 4.94786 0.954548 4.40662 0.232187 3.96847C0.18059 3.94269 0.128993 3.91692 0.0773958 3.89115C0.0515972 3.89115 0.0257986 3.89115 0 3.89115V20.2831H3.81819C4.35996 22.9893 6.86243 24.2522 6.86243 24.2522C6.86243 24.2522 9.36489 23.0667 9.95826 20.2573H13.7507V3.8396Z" fill="black"/>
<path id="Vector_3" d="M20.7421 0H19.7102V25.7993H20.7421V0Z" fill="black"/>
</g>
</svg>
