<svg width="28" height="28" viewBox="0 0 28 28" fill="none" xmlns="http://www.w3.org/2000/svg">
<path d="M14 0.666748C11.3629 0.666748 8.78505 1.44873 6.59239 2.91382C4.39974 4.37891 2.69077 6.46129 1.6816 8.89764C0.672434 11.334 0.408389 14.0149 0.922859 16.6013C1.43733 19.1877 2.70721 21.5635 4.57191 23.4282C6.43661 25.2929 8.81238 26.5628 11.3988 27.0772C13.9852 27.5917 16.6661 27.3276 19.1024 26.3185C21.5388 25.3093 23.6212 23.6003 25.0863 21.4077C26.5513 19.215 27.3333 16.6372 27.3333 14.0001C27.3333 12.2491 26.9885 10.5153 26.3184 8.89764C25.6483 7.27996 24.6662 5.81011 23.4281 4.57199C22.19 3.33388 20.7201 2.35175 19.1024 1.68169C17.4848 1.01162 15.751 0.666748 14 0.666748V0.666748ZM14 24.6667C11.171 24.6667 8.45791 23.5429 6.45752 21.5426C4.45714 19.5422 3.33333 16.8291 3.33333 14.0001C3.33038 11.6312 4.12402 9.33014 5.58666 7.46675L20.5333 22.4134C18.6699 23.8761 16.3689 24.6697 14 24.6667V24.6667ZM22.4133 20.5334L7.46666 5.58675C9.33006 4.1241 11.6311 3.33047 14 3.33341C16.829 3.33341 19.5421 4.45722 21.5425 6.45761C23.5429 8.458 24.6667 11.1711 24.6667 14.0001C24.6696 16.369 23.876 18.67 22.4133 20.5334Z" fill="white"/>
</svg>
