<svg width="36" height="36" viewBox="0 0 36 36" fill="none" xmlns="http://www.w3.org/2000/svg">
<g id="Group 15.1">
<path id="Vector" d="M3.57194 3.57355L3.57355 3.57194C4.79714 2.34556 6.37314 1.68775 8.68919 1.34759C11.0392 1.00245 14.0222 1 17.9967 1C21.9712 1 24.9545 1.00243 27.3055 1.34683C29.6222 1.68621 31.2004 2.34254 32.4273 3.56622C33.6543 4.79331 34.3122 6.37149 34.6524 8.68833C34.9976 11.0391 35 14.0222 35 17.9967C35 21.9712 34.9976 24.9543 34.6524 27.3051C34.3122 29.622 33.6543 31.2002 32.4273 32.4273C31.2003 33.6542 29.6207 34.3122 27.3027 34.6524C24.9511 34.9976 21.9679 35 17.9967 35C14.0255 35 11.0424 34.9976 8.69159 34.6524C6.37446 34.3122 4.79699 33.6543 3.57355 32.4281L3.57275 32.4273C2.34581 31.2003 1.68782 29.6207 1.3476 27.3027C1.00244 24.9511 1 21.9679 1 17.9967C1 14.0255 1.00244 11.0424 1.3476 8.69159C1.68781 6.37446 2.34571 4.79699 3.57194 3.57355Z" stroke="white" stroke-width="2"/>
<g id="instagram">
<g id="Group 3">
<mask id="mask0_59_362" style="mask-type:luminance" maskUnits="userSpaceOnUse" x="8" y="8" width="20" height="20">
<path id="Clip 2" fill-rule="evenodd" clip-rule="evenodd" d="M8 8H28V28H8V8Z" fill="white"/>
</mask>
<g mask="url(#mask0_59_362)">
<path id="Fill 1" fill-rule="evenodd" clip-rule="evenodd" d="M22.4781 8H13.5127C10.4678 8 7.99097 10.4759 7.99097 13.5194V22.4807C7.99097 25.5243 10.4678 28 13.5127 28H22.4781C25.523 28 27.9998 25.5237 27.9998 22.4807V13.5194C27.9998 10.4759 25.523 8 22.4781 8ZM26.2249 22.4807C26.2249 24.5458 24.5444 26.2255 22.4784 26.2255H13.513C11.447 26.2255 9.76656 24.5458 9.76656 22.4807V13.5194C9.76656 11.4543 11.447 9.77449 13.513 9.77449H22.4784C24.5444 9.77449 26.2249 11.4543 26.2249 13.5194V22.4807Z" fill="white"/>
</g>
</g>
<path id="Fill 4" fill-rule="evenodd" clip-rule="evenodd" d="M18.03 13C15.2562 13 13 15.2554 13 18.0274C13 20.8001 15.2562 23.0555 18.03 23.0555C20.8031 23.0555 23.0599 20.8001 23.0599 18.0274C23.0599 15.2554 20.8031 13 18.03 13ZM18.0302 21.3236C16.212 21.3236 14.7321 19.8455 14.7321 18.0274C14.7321 16.21 16.2114 14.7307 18.0302 14.7307C19.849 14.7307 21.3283 16.21 21.3283 18.0274C21.3283 19.8455 19.8484 21.3236 18.0302 21.3236Z" fill="white"/>
<path id="Fill 5" fill-rule="evenodd" clip-rule="evenodd" d="M23.0812 11.7566C22.7762 11.7566 22.4768 11.8797 22.2615 12.096C22.0445 12.3113 21.9204 12.6111 21.9204 12.9171C21.9204 13.222 22.0451 13.5213 22.2615 13.7375C22.4764 13.9529 22.7762 14.0771 23.0812 14.0771C23.3872 14.0771 23.6856 13.9529 23.9019 13.7375C24.1183 13.5213 24.2419 13.2214 24.2419 12.9171C24.2419 12.6111 24.1183 12.3113 23.9019 12.096C23.6865 11.8797 23.3872 11.7566 23.0812 11.7566Z" fill="white"/>
</g>
</g>
</svg>
