<svg aria-hidden="true" style="position: absolute; width: 0; height: 0; overflow: hidden;" version="1.1" xmlns="http://www.w3.org/2000/svg" xmlns:xlink="http://www.w3.org/1999/xlink">
<defs>
<symbol id="download-icon" viewBox="0 0 22 32">
<path d="M21.979 15.345l-10.99 9.652-10.99-9.652 1.98-2.254 7.51 6.596v-18.686h3v18.686l7.51-6.596 1.98 2.254z"></path>
<path d="M20.989 31h-20v-3h20v3z"></path>
</symbol>
<symbol id="play-video" viewBox="0 0 29 32">
<path d="M28 13.691c1.778 1.026 1.778 3.592 0 4.619l-22 12.702c-1.778 1.026-4-0.257-4-2.31v-25.403c0-2.053 2.222-3.336 4-2.309l22 12.702z"></path>
</symbol>
<symbol id="icon-herb" viewBox="0 0 20 32">
<path d="M9.089 30.9c-1.748-1.266-3.037-3.154-3.452-5.354h-5.637v-23.139c3.037 1.432 5.2 4.607 5.462 7.886l0.852 6.495-0.415-0.062c-0.918 0-1.704 0.809-1.704 1.619 0 0.747 0.612 1.39 1.398 1.556l1.027 0.228c1.704-3.051 2.666-6.039 2.666-8.986 0-2.656-0.371-5.292-0.415-7.99 0-1.204 0.481-2.304 1.267-3.154 0.787 0.872 1.267 1.951 1.267 3.154 0 2.698-0.415 5.354-0.415 7.99 0 2.926 0.961 5.935 2.666 8.986l1.027-0.228c0.787-0.166 1.398-0.809 1.398-1.556 0-0.809-0.787-1.619-1.704-1.619l-0.415 0.062 0.852-6.495c0.415-3.279 2.425-6.454 5.462-7.886v23.139h-5.637c-0.415 2.179-1.639 4.15-3.452 5.354-0.415 0.291-0.787 0.643-1.027 1.1-0.284-0.477-0.655-0.809-1.071-1.1zM2.666 17.556c0.24-0.872 0.918-1.619 1.748-2.075l-0.677-5.354c-0.24-1.66-0.961-3.154-2.054-4.379v11.787h0.983v0.021zM5.528 23.927c0-0.809 0.131-1.556 0.306-2.303l-0.787-0.166c-1.158-0.353-2.054-1.204-2.36-2.303h-0.961v4.773h3.802zM9.264 23.927c0-0.975-0.787-1.847-1.813-1.951-0.175 0.623-0.306 1.266-0.306 1.951h2.119zM9.264 25.546h-1.879c0.306 1.266 0.961 2.407 1.879 3.403v-3.403zM11.929 20.545c-0.721-1.266-1.398-2.594-1.813-3.964-0.415 1.39-1.092 2.698-1.813 3.964 0.721 0.166 1.333 0.623 1.813 1.141 0.481-0.519 1.092-0.975 1.813-1.141zM13.087 23.927c0-0.685-0.131-1.328-0.306-1.951-1.027 0.124-1.813 0.975-1.813 1.951h2.119zM12.847 25.546h-1.879v3.403c0.918-0.996 1.573-2.137 1.879-3.403zM18.549 23.927v-4.773h-0.961c-0.306 1.1-1.202 1.951-2.36 2.303l-0.787 0.166c0.175 0.747 0.306 1.494 0.306 2.303h3.802zM18.549 17.556v-11.787c-1.092 1.204-1.879 2.698-2.054 4.379l-0.677 5.354c0.852 0.457 1.508 1.204 1.748 2.075h0.983v-0.021z"></path>
</symbol>
<symbol id="icon-line" viewBox="0 0 1 32">
<path d="M1.455 0h-1.266v31.661h1.266v-31.661z"></path>
</symbol>
<symbol id="icon-play-btn" viewBox="0 0 31 32">
<path fill="#fff" style="fill: var(--color1, #fff)" d="M15.336 31.889v0h-0c-6.72 0-10.458 0-12.894-2.539-2.442-2.538-2.442-6.424-2.442-13.409s0-10.87 2.442-13.403c2.436-2.538 6.169-2.538 12.894-2.538s10.458 0 12.9 2.533c2.442 2.538 2.442 6.418 2.442 13.409s0 10.87-2.442 13.409c-2.442 2.539-6.18 2.539-12.9 2.539zM18.435 16.386c0.334-0.207 0.334-0.693 0-0.899l-4.11-2.545c-0.352-0.218-0.807 0.035-0.807 0.45v5.090c0 0.414 0.455 0.668 0.807 0.45l4.11-2.545z"></path>
</symbol>
</defs>
</svg>
