<svg aria-hidden="true" style="position: absolute; width: 0; height: 0; overflow: hidden;" version="1.1" xmlns="http://www.w3.org/2000/svg" xmlns:xlink="http://www.w3.org/1999/xlink">
<defs>
<symbol id="download-icon" viewBox="0 0 22 32">
<path d="M21.979 15.345l-10.99 9.652-10.99-9.652 1.98-2.254 7.51 6.596v-18.686h3v18.686l7.51-6.596 1.98 2.254z"></path>
<path d="M20.989 31h-20v-3h20v3z"></path>
</symbol>
<symbol id="play-video" viewBox="0 0 29 32">
<path d="M28 13.691c1.778 1.026 1.778 3.592 0 4.619l-22 12.702c-1.778 1.026-4-0.257-4-2.31v-25.403c0-2.053 2.222-3.336 4-2.309l22 12.702z"></path>
</symbol>
<symbol id="icon-herb" viewBox="0 0 20 32">
<path d="M9.089 30.9c-1.748-1.266-3.037-3.154-3.452-5.354h-5.637v-23.139c3.037 1.432 5.2 4.607 5.462 7.886l0.852 6.495-0.415-0.062c-0.918 0-1.704 0.809-1.704 1.619 0 0.747 0.612 1.39 1.398 1.556l1.027 0.228c1.704-3.051 2.666-6.039 2.666-8.986 0-2.656-0.371-5.292-0.415-7.99 0-1.204 0.481-2.304 1.267-3.154 0.787 0.872 1.267 1.951 1.267 3.154 0 2.698-0.415 5.354-0.415 7.99 0 2.926 0.961 5.935 2.666 8.986l1.027-0.228c0.787-0.166 1.398-0.809 1.398-1.556 0-0.809-0.787-1.619-1.704-1.619l-0.415 0.062 0.852-6.495c0.415-3.279 2.425-6.454 5.462-7.886v23.139h-5.637c-0.415 2.179-1.639 4.15-3.452 5.354-0.415 0.291-0.787 0.643-1.027 1.1-0.284-0.477-0.655-0.809-1.071-1.1zM2.666 17.556c0.24-0.872 0.918-1.619 1.748-2.075l-0.677-5.354c-0.24-1.66-0.961-3.154-2.054-4.379v11.787h0.983v0.021zM5.528 23.927c0-0.809 0.131-1.556 0.306-2.303l-0.787-0.166c-1.158-0.353-2.054-1.204-2.36-2.303h-0.961v4.773h3.802zM9.264 23.927c0-0.975-0.787-1.847-1.813-1.951-0.175 0.623-0.306 1.266-0.306 1.951h2.119zM9.264 25.546h-1.879c0.306 1.266 0.961 2.407 1.879 3.403v-3.403zM11.929 20.545c-0.721-1.266-1.398-2.594-1.813-3.964-0.415 1.39-1.092 2.698-1.813 3.964 0.721 0.166 1.333 0.623 1.813 1.141 0.481-0.519 1.092-0.975 1.813-1.141zM13.087 23.927c0-0.685-0.131-1.328-0.306-1.951-1.027 0.124-1.813 0.975-1.813 1.951h2.119zM12.847 25.546h-1.879v3.403c0.918-0.996 1.573-2.137 1.879-3.403zM18.549 23.927v-4.773h-0.961c-0.306 1.1-1.202 1.951-2.36 2.303l-0.787 0.166c0.175 0.747 0.306 1.494 0.306 2.303h3.802zM18.549 17.556v-11.787c-1.092 1.204-1.879 2.698-2.054 4.379l-0.677 5.354c0.852 0.457 1.508 1.204 1.748 2.075h0.983v-0.021z"></path>
</symbol>
<symbol id="icon-line" viewBox="0 0 1 32">
<path d="M1.455 0h-1.266v31.661h1.266v-31.661z"></path>
</symbol>
<symbol id="icon-play-btn" viewBox="0 0 31 32">
<path d="M15.336 31.889v0h-0c-6.72 0-10.458 0-12.894-2.539-2.442-2.538-2.442-6.424-2.442-13.409s0-10.87 2.442-13.403c2.436-2.538 6.169-2.538 12.894-2.538s10.458 0 12.9 2.533c2.442 2.538 2.442 6.418 2.442 13.409s0 10.87-2.442 13.409c-2.442 2.539-6.18 2.539-12.9 2.539zM18.435 16.386c0.334-0.207 0.334-0.693 0-0.899l-4.11-2.545c-0.352-0.218-0.807 0.035-0.807 0.45v5.090c0 0.414 0.455 0.668 0.807 0.45l4.11-2.545z"></path>
</symbol>
<symbol id="icon-facebook" viewBox="0 0 32 32">
<path fill="#cdcdd3" style="fill: var(--color1, #cdcdd3)" d="M9.362 30.876c-1.641-0.138-2.749-0.406-3.663-0.89-1.57-0.831-2.854-2.115-3.685-3.685-0.484-0.914-0.753-2.022-0.89-3.663-0.139-1.653-0.14-3.754-0.14-6.638s0.001-4.985 0.14-6.638c0.138-1.641 0.406-2.749 0.89-3.663 0.831-1.57 2.115-2.854 3.685-3.685 0.914-0.484 2.022-0.753 3.663-0.89 1.653-0.139 3.754-0.14 6.638-0.14s4.985 0.001 6.638 0.14c1.641 0.138 2.749 0.406 3.663 0.89 1.57 0.831 2.854 2.115 3.685 3.685 0.484 0.914 0.753 2.022 0.89 3.663 0.139 1.653 0.14 3.754 0.14 6.638s-0.001 4.985-0.14 6.638c-0.138 1.641-0.406 2.749-0.89 3.663-0.831 1.57-2.115 2.854-3.685 3.685-0.914 0.484-2.022 0.753-3.663 0.89-1.653 0.139-3.754 0.14-6.638 0.14s-4.985-0.001-6.638-0.14zM1.144 5.239c-1.144 2.162-1.144 5.028-1.144 10.761s0 8.6 1.144 10.761c0.924 1.744 2.35 3.171 4.094 4.094 2.162 1.144 5.028 1.144 10.761 1.144s8.6 0 10.761-1.144c1.744-0.924 3.171-2.35 4.094-4.094 1.144-2.162 1.144-5.028 1.144-10.761s0-8.6-1.144-10.761c-0.924-1.744-2.35-3.171-4.094-4.094-2.162-1.144-5.028-1.144-10.761-1.144s-8.6 0-10.761 1.144c-1.744 0.924-3.171 2.35-4.094 4.094z"></path>
<path fill="#1877f2" style="fill: var(--color2, #1877f2)" d="M20.046 7.388l-2.107-0.003c-2.367 0-3.896 1.569-3.896 3.998v1.843h-2.118c-0.183 0-0.331 0.148-0.331 0.331v2.671c0 0.183 0.148 0.331 0.331 0.331h2.118v6.74c0 0.183 0.148 0.331 0.331 0.331h2.764c0.183 0 0.331-0.148 0.331-0.331v-6.74h2.477c0.183 0 0.331-0.148 0.331-0.331l0.001-2.671c0-0.088-0.035-0.172-0.097-0.234s-0.147-0.097-0.234-0.097h-2.478v-1.563c0-0.751 0.179-1.132 1.157-1.132l1.419-0.001c0.183 0 0.331-0.148 0.331-0.331v-2.48c0-0.183-0.148-0.331-0.331-0.331z"></path>
</symbol>
<symbol id="icon-telegram" viewBox="0 0 32 32">
<path fill="#cdcdd3" style="fill: var(--color1, #cdcdd3)" d="M9.362 30.876c-1.641-0.138-2.749-0.406-3.663-0.89-1.57-0.831-2.854-2.115-3.685-3.685-0.484-0.914-0.753-2.022-0.89-3.663-0.139-1.653-0.14-3.754-0.14-6.638s0.001-4.985 0.14-6.638c0.138-1.641 0.406-2.749 0.89-3.663 0.831-1.57 2.115-2.854 3.685-3.685 0.914-0.484 2.022-0.753 3.663-0.89 1.653-0.139 3.754-0.14 6.638-0.14s4.985 0.001 6.638 0.14c1.641 0.138 2.749 0.406 3.663 0.89 1.57 0.831 2.854 2.115 3.685 3.685 0.484 0.914 0.753 2.022 0.89 3.663 0.139 1.653 0.14 3.754 0.14 6.638s-0.001 4.985-0.14 6.638c-0.138 1.641-0.406 2.749-0.89 3.663-0.831 1.57-2.115 2.854-3.685 3.685-0.914 0.484-2.022 0.753-3.663 0.89-1.653 0.139-3.754 0.14-6.638 0.14s-4.985-0.001-6.638-0.14zM1.144 5.239c-1.144 2.162-1.144 5.028-1.144 10.761s0 8.6 1.144 10.761c0.924 1.744 2.35 3.171 4.094 4.094 2.162 1.144 5.028 1.144 10.761 1.144s8.6 0 10.761-1.144c1.744-0.924 3.171-2.35 4.094-4.094 1.144-2.162 1.144-5.028 1.144-10.761s0-8.6-1.144-10.761c-0.924-1.744-2.35-3.171-4.094-4.094-2.162-1.144-5.028-1.144-10.761-1.144s-8.6 0-10.761 1.144c-1.744 0.924-3.171 2.35-4.094 4.094z"></path>
<path fill="#34ace0" style="fill: var(--color3, #34ace0)" d="M23.667 10.197l-2.67 12.447c-0.201 0.879-0.727 1.097-1.473 0.683l-4.068-2.963-1.963 1.866c-0.217 0.215-0.399 0.394-0.818 0.394l0.292-4.096 7.54-6.735c0.328-0.289-0.071-0.449-0.51-0.16l-9.322 5.802-4.013-1.242c-0.873-0.269-0.889-0.863 0.182-1.277l15.697-5.978c0.727-0.269 1.363 0.16 1.126 1.257z"></path>
</symbol>
<symbol id="icon-viber" viewBox="0 0 32 32">
<path fill="#cdcdd3" style="fill: var(--color1, #cdcdd3)" d="M9.362 30.876c-1.641-0.138-2.749-0.406-3.663-0.89-1.57-0.831-2.854-2.115-3.685-3.685-0.484-0.914-0.753-2.022-0.89-3.663-0.139-1.653-0.14-3.754-0.14-6.638s0.001-4.985 0.14-6.638c0.138-1.641 0.406-2.749 0.89-3.663 0.831-1.57 2.115-2.854 3.685-3.685 0.914-0.484 2.022-0.753 3.663-0.89 1.653-0.139 3.754-0.14 6.638-0.14s4.985 0.001 6.638 0.14c1.641 0.138 2.749 0.406 3.663 0.89 1.57 0.831 2.854 2.115 3.685 3.685 0.484 0.914 0.753 2.022 0.89 3.663 0.139 1.653 0.14 3.754 0.14 6.638s-0.001 4.985-0.14 6.638c-0.138 1.641-0.406 2.749-0.89 3.663-0.831 1.57-2.115 2.854-3.685 3.685-0.914 0.484-2.022 0.753-3.663 0.89-1.653 0.139-3.754 0.14-6.638 0.14s-4.985-0.001-6.638-0.14zM1.144 5.239c-1.144 2.162-1.144 5.028-1.144 10.761s0 8.6 1.144 10.761c0.924 1.744 2.35 3.171 4.094 4.094 2.162 1.144 5.028 1.144 10.761 1.144s8.6 0 10.761-1.144c1.744-0.924 3.171-2.35 4.094-4.094 1.144-2.162 1.144-5.028 1.144-10.761s0-8.6-1.144-10.761c-0.924-1.744-2.35-3.171-4.094-4.094-2.162-1.144-5.028-1.144-10.761-1.144s-8.6 0-10.761 1.144c-1.744 0.924-3.171 2.35-4.094 4.094z"></path>
<path fill="#6f3faa" style="fill: var(--color4, #6f3faa)" d="M11.628 24.648c0-0.64-0.102-2.212-0.103-2.677-0-0.205-0.137-0.264-0.3-0.318-0.996-0.326-1.817-0.896-2.4-1.798-0.521-0.806-0.778-1.704-0.888-2.65-0.212-1.835-0.196-3.665 0.237-5.466 0.383-1.593 1.319-2.696 2.866-3.266 1.84-0.679 3.735-0.69 5.649-0.612 0.928 0.037 1.843 0.146 2.735 0.404 0.95 0.274 1.887 0.595 2.56 1.398 0.481 0.573 0.769 1.251 0.956 1.972 0.425 1.639 0.433 3.302 0.286 4.98-0.071 0.812-0.163 1.614-0.448 2.377-0.546 1.46-1.598 2.314-3.073 2.694-1.691 0.436-3.404 0.604-5.142 0.537-0.241-0.009-0.383 0.116-0.529 0.28-0.895 0.876-2.337 2.083-2.404 2.146z"></path>
<path fill="#6f3faa" style="fill: var(--color4, #6f3faa)" d="M11.997 25.090c-0.1 0-0.2-0.020-0.295-0.060-0.271-0.114-0.446-0.372-0.446-0.658 0-0.319-0.031-0.925-0.058-1.459-0.016-0.313-0.031-0.598-0.039-0.821-1.13-0.391-2.016-1.050-2.636-1.962-0.55-0.808-0.884-1.748-1.022-2.874-0.25-2.055-0.166-3.868 0.258-5.543 0.456-1.803 1.596-3.036 3.387-3.663 1.316-0.461 2.73-0.667 4.587-0.667 0.421 0 0.882 0.010 1.45 0.032 1.141 0.044 2.081 0.176 2.959 0.417 1.054 0.289 2.151 0.649 2.969 1.576 0.515 0.584 0.884 1.3 1.127 2.191 0.398 1.46 0.498 3.069 0.313 5.064-0.075 0.804-0.175 1.658-0.503 2.491-0.623 1.582-1.848 2.607-3.642 3.046-1.504 0.368-3.077 0.555-4.675 0.555-0.232 0-0.468-0.004-0.703-0.012-0.009 0.009-0.019 0.020-0.032 0.033-0.011 0.012-0.023 0.024-0.036 0.035-0.753 0.7-1.879 1.615-2.303 1.959-0.083 0.067-0.14 0.113-0.162 0.132-0.139 0.122-0.317 0.186-0.498 0.186zM15.732 8.82c-1.677 0-2.936 0.179-4.082 0.581-1.314 0.46-2.116 1.329-2.452 2.655-0.381 1.505-0.454 3.151-0.225 5.033 0.11 0.899 0.367 1.636 0.787 2.253 0.473 0.694 1.144 1.169 2.053 1.451 0.678 0.21 0.82 0.654 0.821 0.99 0 0.188 0.022 0.612 0.045 1.061 0 0.009 0.001 0.019 0.001 0.028 0.416-0.348 0.872-0.739 1.235-1.075 0.156-0.165 0.5-0.508 1.098-0.487 0.239 0.009 0.481 0.013 0.717 0.013 1.476 0 2.926-0.172 4.311-0.511 1.335-0.327 2.167-1.015 2.62-2.166 0.261-0.662 0.343-1.375 0.411-2.108 0.171-1.849 0.088-3.258-0.27-4.569-0.185-0.677-0.453-1.209-0.821-1.625-0.55-0.623-1.376-0.889-2.246-1.128-0.763-0.209-1.593-0.325-2.614-0.364-0.548-0.021-0.99-0.031-1.391-0.031z"></path>
<path fill="#efeff3" style="fill: var(--color5, #efeff3)" d="M19.766 18.191c-0.063 0.559-0.37 0.872-0.677 1.17-0.346 0.337-0.759 0.537-1.252 0.34-0.379-0.151-0.75-0.324-1.115-0.507-1.145-0.575-2.149-1.344-3.016-2.282-1.026-1.112-1.829-2.366-2.301-3.815-0.123-0.379-0.059-0.717 0.24-0.977 0.275-0.239 0.566-0.464 0.875-0.657 0.222-0.139 0.492-0.125 0.695 0.055 0.564 0.503 1.026 1.090 1.325 1.788 0.101 0.236 0.079 0.486-0.153 0.669-0.113 0.090-0.22 0.187-0.332 0.28-0.307 0.254-0.354 0.43-0.232 0.805 0.279 0.853 0.879 1.444 1.602 1.92 0.244 0.161 0.53 0.265 0.806 0.369 0.235 0.089 0.431-0.009 0.583-0.201 0.079-0.1 0.155-0.202 0.236-0.3 0.231-0.28 0.636-0.373 0.938-0.171 0.53 0.354 1.050 0.723 1.553 1.114 0.127 0.098 0.171 0.302 0.223 0.401z"></path>
<path fill="#efeff3" style="fill: var(--color5, #efeff3)" d="M20.754 15.352c-0.189 0-0.342-0.166-0.342-0.37 0-2.561-1.925-4.645-4.292-4.645-0.189 0-0.342-0.166-0.342-0.37s0.153-0.37 0.342-0.37c2.743 0 4.975 2.416 4.975 5.385 0 0.204-0.153 0.37-0.342 0.37z"></path>
<path fill="#efeff3" style="fill: var(--color5, #efeff3)" d="M19.393 15.795c-0.206 0-0.373-0.167-0.373-0.373 0-1.824-1.485-3.307-3.31-3.307-0.206 0-0.373-0.167-0.373-0.373s0.167-0.373 0.373-0.373c2.237 0 4.057 1.818 4.057 4.053 0 0.206-0.167 0.373-0.373 0.373z"></path>
<path fill="#efeff3" style="fill: var(--color5, #efeff3)" d="M17.668 15.795c-0.18 0-0.326-0.146-0.326-0.325 0-0.926-0.754-1.68-1.682-1.68-0.18 0-0.326-0.146-0.326-0.325s0.146-0.325 0.326-0.325c1.286 0 2.333 1.046 2.333 2.331 0 0.18-0.146 0.325-0.326 0.325z"></path>
</symbol>
</defs>
</svg>
